<svg xmlns="http://www.w3.org/2000/svg" width="29" height="29" viewBox="51 0 12 29" fill="none">
<circle cx="57" cy="14.3218" r="14" fill="#E3B873"/>
<path d="M60 8.72119H54C52.3432 8.72119 51 10.0643 51 11.7212V17.7212C51 19.378 52.3432 20.7212 54 20.7212H60C61.6569 20.7212 63 19.378 63 17.7212V11.7212C63 10.0643 61.6569 8.72119 60 8.72119Z" stroke="white" stroke-width="1.5"/>
<path d="M59.4 14.3434C59.4741 14.8427 59.3888 15.3527 59.1563 15.8008C58.9238 16.2489 58.5559 16.6122 58.105 16.8392C57.6541 17.0661 57.1431 17.1451 56.6447 17.0649C56.1463 16.9847 55.6859 16.7494 55.3289 16.3925C54.972 16.0355 54.7367 15.5751 54.6565 15.0767C54.5763 14.5783 54.6553 14.0673 54.8822 13.6164C55.1092 13.1655 55.4725 12.7976 55.9206 12.5651C56.3687 12.3326 56.8787 12.2473 57.378 12.3214C57.8874 12.3969 58.3589 12.6343 58.723 12.9984C59.0872 13.3625 59.3245 13.834 59.4 14.3434Z" stroke="white" stroke-width="1.5" stroke-linecap="round" stroke-linejoin="round"/>
</svg>